# Made in Blockbench 5.0.5
mtllib fox_ears.mtl

o rightEar
v 0.07599748208429141 1.9375 -0.11746157759823855
v 0.01998493327575726 1.956294112469017 -0.0970746770865493
v 0.2814117693687004 2.4143584753741134 0.007307068476463632
v 0.2783812869642336 2.611974516108423 0.008410073867157038
v 0.08411371014932013 1.956294112469017 0.07911768931080854
v 0.2521513565749226 1.8999117750619658 0.017956987775740743
v 0.2307750976170683 1.8999117750619658 -0.040773801023378534
v 0.11875 1.9375 0
v 0.20402296160231198 2.4331525878431304 -0.031036819810966378
v 0.23405829302283623 2.428454059725876 0.007914546660450765
vt 0.67788125 0.30989999999999995
vt 0.55929375 0.8114625
vt 0.5098875 0.8114625
vt 0.65811875 0.30523124999999995
vt 0.1875 0.3125
vt 0.1875 1
vt 0.125 0.8125
vt 0 0.3125
vt 0.375 0.3125
vt 0.25 0.8125
vt 0.1875 1
vt 0.1875 0.3125
vt 0.3322625 0.05179374999999997
vt 0.48049375 0.515839375
vt 0.4310875 0.515839375
vt 0.3125 0.06225875000000003
vt 0.5591325 0.53079125
vt 0.4408675 0.04047624999999999
vt 0.5591325 0
vt 0.921645625 0.993265625
vt 0.578354375 0.993265625
vt 0.6045325 0.875
vt 0.49038125 0.6875
vt 0.4310875 0.515839375
vt 0.48049375 0.515839375
vt 0.55929375 0.8114625
vt 0.5 1
vt 0.5098875 0.8114625
vn 0.76201605640462 -0.20922381841778934 -0.612826993194842
vn -0.8962007809365465 0.3007057995042731 0.32619040818702827
vn 0.3420201433256687 1.387778780781446e-17 0.9396926207859085
vn 0.014502241387714276 0.09163081927543233 -0.9956874398894693
vn 0.31415158135712123 -0.08902061607542204 0.9451899882269027
vn -0.9186635502611058 0.2103723698855544 0.3343661876003558
vn -0.011217478654901749 0.005409102819001825 -0.999922451882805
vn 0.7675874529946256 -0.18372609514180066 -0.6140474118251533
usemtl m_7073a34b-502f-b117-9fc8-32257fd2f593
f 2/1/1 9/2/1 10/3/1 1/4/1
f 5/5/2 4/6/2 9/7/2 2/8/2
f 6/9/3 3/10/3 4/11/3 5/12/3
f 7/13/4 10/14/4 3/15/4 6/16/4
f 10/17/5 8/18/5 7/19/5
f 10/20/6 1/21/6 8/22/6
f 4/23/7 3/24/7 10/25/7
f 9/26/8 4/27/8 10/28/8
o leftEar
v -0.07599748208429141 1.9375 -0.11746157759823855
v -0.01998493327575726 1.956294112469017 -0.0970746770865493
v -0.2814117693687004 2.4143584753741134 0.007307068476463632
v -0.2783812869642336 2.611974516108423 0.008410073867157038
v -0.08411371014932013 1.956294112469017 0.07911768931080854
v -0.2521513565749226 1.8999117750619658 0.017956987775740743
v -0.2307750976170683 1.8999117750619658 -0.040773801023378534
v -0.11875 1.9375 0
v -0.20402296160231198 2.4331525878431304 -0.031036819810966378
v -0.23405829302283623 2.428454059725876 0.007914546660450765
vt 0.5098875 0.8114625
vt 0.55929375 0.8114625
vt 0.67788125 0.30989999999999995
vt 0.65811875 0.30523124999999995
vt 0.125 0.8125
vt 0.1875 1
vt 0.1875 0.3125
vt 0 0.3125
vt 0.1875 1
vt 0.25 0.8125
vt 0.375 0.3125
vt 0.1875 0.3125
vt 0.4310875 0.515839375
vt 0.48049375 0.515839375
vt 0.3322625 0.05179374999999997
vt 0.3125 0.06225875000000003
vt 0.4408675 0.04047624999999999
vt 0.5591325 0.53079125
vt 0.5591325 0
vt 0.578354375 0.993265625
vt 0.921645625 0.993265625
vt 0.6045325 0.875
vt 0.4310875 0.515839375
vt 0.49038125 0.6875
vt 0.48049375 0.515839375
vt 0.5 1
vt 0.55929375 0.8114625
vt 0.5098875 0.8114625
vn -0.76201605640462 -0.20922381841778934 -0.612826993194842
vn 0.8962007809365465 0.3007057995042731 0.32619040818702827
vn -0.3420201433256687 1.387778780781446e-17 0.9396926207859085
vn -0.014502241387714276 0.09163081927543233 -0.9956874398894693
vn -0.31415158135712123 -0.08902061607542204 0.9451899882269027
vn 0.9186635502611058 0.2103723698855544 0.3343661876003558
vn 0.011217478654901749 0.005409102819001825 -0.999922451882805
vn -0.7675874529946256 -0.18372609514180066 -0.6140474118251533
usemtl m_7073a34b-502f-b117-9fc8-32257fd2f593
f 20/29/9 19/30/9 12/31/9 11/32/9
f 19/33/10 14/34/10 15/35/10 12/36/10
f 14/37/11 13/38/11 16/39/11 15/40/11
f 13/41/12 20/42/12 17/43/12 16/44/12
f 18/45/13 20/46/13 17/47/13
f 11/48/14 20/49/14 18/50/14
f 13/51/15 14/52/15 20/53/15
f 14/54/16 19/55/16 20/56/16
o Head
v 0.25 2 0.25
v 0.25 2 -0.25
v 0.25 1.5 0.25
v 0.25 1.5 -0.25
v -0.25 2 -0.25
v -0.25 2 0.25
v -0.25 1.5 -0.25
v -0.25 1.5 0.25
vt 0.125 0.875
vt 0.25 0.875
vt 0.25 0.75
vt 0.125 0.75
vt 0 0.875
vt 0.125 0.875
vt 0.125 0.75
vt 0 0.75
vt 0.375 0.875
vt 0.5 0.875
vt 0.5 0.75
vt 0.375 0.75
vt 0.25 0.875
vt 0.375 0.875
vt 0.375 0.75
vt 0.25 0.75
vt 0.25 0.875
vt 0.125 0.875
vt 0.125 1
vt 0.25 1
vt 0.375 1
vt 0.25 1
vt 0.25 0.875
vt 0.375 0.875
vn 0 0 -1
vn 1 0 0
vn 0 0 1
vn -1 0 0
vn 0 1 0
vn 0 -1 0
usemtl m_215d8c9e-3b53-2ed3-b7a7-51c11f5de944
f 24/60/17 27/59/17 25/58/17 22/57/17
f 23/64/18 24/63/18 22/62/18 21/61/18
f 28/68/19 23/67/19 21/66/19 26/65/19
f 27/72/20 28/71/20 26/70/20 25/69/20
f 26/76/21 21/75/21 22/74/21 25/73/21
f 27/80/22 24/79/22 23/78/22 28/77/22
o Hat Layer
v 0.28125 2.03125 0.28125
v 0.28125 2.03125 -0.28125
v 0.28125 1.46875 0.28125
v 0.28125 1.46875 -0.28125
v -0.28125 2.03125 -0.28125
v -0.28125 2.03125 0.28125
v -0.28125 1.46875 -0.28125
v -0.28125 1.46875 0.28125
vt 0.625 0.875
vt 0.75 0.875
vt 0.75 0.75
vt 0.625 0.75
vt 0.5 0.875
vt 0.625 0.875
vt 0.625 0.75
vt 0.5 0.75
vt 0.875 0.875
vt 1 0.875
vt 1 0.75
vt 0.875 0.75
vt 0.75 0.875
vt 0.875 0.875
vt 0.875 0.75
vt 0.75 0.75
vt 0.75 0.875
vt 0.625 0.875
vt 0.625 1
vt 0.75 1
vt 0.875 1
vt 0.75 1
vt 0.75 0.875
vt 0.875 0.875
vn 0 0 -1
vn 1 0 0
vn 0 0 1
vn -1 0 0
vn 0 1 0
vn 0 -1 0
usemtl m_215d8c9e-3b53-2ed3-b7a7-51c11f5de944
f 32/84/23 35/83/23 33/82/23 30/81/23
f 31/88/24 32/87/24 30/86/24 29/85/24
f 36/92/25 31/91/25 29/90/25 34/89/25
f 35/96/26 36/95/26 34/94/26 33/93/26
f 34/100/27 29/99/27 30/98/27 33/97/27
f 35/104/28 32/103/28 31/102/28 36/101/28